<svg xmlns="http://www.w3.org/2000/svg" width="64" height="64" viewBox="0 0 64 64"><rect width="100%" height="100%" fill="#ADD8E6"/><path fill="#000000" d="M13.65 32.845h2.3l-.88-2.4q-.06-.16-.13-.38-.07-.23-.14-.48-.07.25-.14.48-.07.22-.13.38zm1.84-4.5 2.84 7.23h-1.04q-.18 0-.29-.09t-.16-.21l-.54-1.48h-3l-.54 1.48q-.04.11-.15.2-.12.1-.29.1h-1.05l2.85-7.23zm7.39 2.73-.32.46q-.06.06-.11.1t-.15.04-.19-.05q-.09-.06-.21-.13-.13-.08-.3-.13-.17-.06-.43-.06-.32 0-.57.12-.24.11-.41.34-.16.21-.24.53-.08.31-.08.7 0 .41.09.74.09.31.25.53.17.22.4.33.24.12.53.12.3 0 .48-.08.18-.07.31-.16.12-.09.22-.16.09-.07.2-.07.15 0 .23.11l.35.45q-.2.24-.44.41-.24.16-.5.26-.26.09-.53.14-.27.03-.54.03-.48 0-.9-.17-.42-.18-.73-.52-.32-.34-.5-.83-.18-.5-.18-1.13 0-.56.16-1.04.16-.49.48-.84.31-.35.78-.55.46-.2 1.07-.2.57 0 1 .18.44.19.78.53m4.82 0-.32.46q-.06.06-.11.1t-.15.04-.19-.05q-.09-.06-.21-.13-.13-.08-.3-.13-.17-.06-.43-.06-.32 0-.57.12-.24.11-.4.34-.17.21-.25.53-.08.31-.08.7 0 .41.09.74.09.31.25.53.17.22.4.33.24.12.53.12.3 0 .48-.08.18-.07.31-.16.12-.09.22-.16.09-.07.2-.07.15 0 .23.11l.35.45q-.2.24-.44.41-.24.16-.5.26-.26.09-.53.14-.27.03-.54.03-.48 0-.9-.17-.42-.18-.73-.52-.32-.34-.5-.83-.18-.5-.18-1.13 0-.56.16-1.04.16-.49.48-.84.31-.35.78-.55.46-.2 1.07-.2.57 0 1 .18.44.19.78.53m3.09-.71q.57 0 1.04.18.47.19.8.53t.51.83.18 1.09q0 .61-.18 1.1-.18.5-.51.84-.33.35-.8.53t-1.04.18-1.04-.18-.81-.53q-.33-.34-.51-.84-.18-.49-.18-1.1 0-.6.18-1.09t.51-.83q.34-.34.81-.53.47-.18 1.04-.18m0 4.33q.64 0 .95-.42.31-.44.31-1.26 0-.84-.31-1.27t-.95-.43q-.65 0-.96.43-.31.44-.31 1.27 0 .82.31 1.25t.96.43m6.66-4.25h1.24v5.13h-.76q-.24 0-.31-.23l-.08-.41q-.32.32-.7.52t-.89.2q-.42 0-.74-.14-.33-.15-.55-.41-.22-.25-.33-.61t-.11-.79v-3.26h1.23v3.26q0 .47.22.73.22.25.65.25.32 0 .6-.14t.53-.39zm3.53.22.08.41q.16-.16.33-.29t.36-.22q.2-.1.42-.15t.48-.05q.42 0 .74.14.33.15.55.4.21.26.32.62.12.35.12.78v3.27h-1.24v-3.27q0-.46-.21-.72-.22-.26-.66-.26-.32 0-.6.14-.28.15-.53.4v3.71h-1.23v-5.13h.75q.24 0 .32.22m6.28 4.99q-.67 0-1.03-.38t-.36-1.04v-2.87h-.52q-.1 0-.17-.06t-.07-.19v-.5l.82-.13.26-1.4q.03-.1.1-.16.07-.05.18-.05h.64v1.62h1.37v.87h-1.37v2.78q0 .24.11.38.12.13.33.13.11 0 .19-.02.08-.03.13-.06.06-.03.11-.06.04-.02.09-.02t.09.02q.03.03.07.09l.37.59q-.27.23-.62.34-.35.12-.72.12m5.42-4.66-.28.45q-.05.08-.11.11-.05.04-.14.04t-.19-.06q-.1-.04-.24-.11-.13-.06-.31-.11-.17-.05-.4-.05-.37 0-.58.15-.2.16-.2.41 0 .17.1.28.11.11.29.2.18.08.4.15.23.06.46.14t.46.19q.22.1.4.26.18.15.28.37.11.22.11.53 0 .37-.13.69-.13.31-.39.54-.26.22-.65.35-.38.13-.88.13-.26 0-.52-.05-.25-.04-.48-.13-.23-.08-.43-.2t-.35-.25l.29-.47q.05-.08.13-.13.07-.05.19-.05.11 0 .21.07.11.07.24.14.14.07.32.14.18.06.46.06.22 0 .38-.05t.26-.13q.1-.09.15-.2t.05-.24q0-.17-.11-.29-.11-.11-.29-.2-.17-.09-.4-.15-.23-.07-.47-.15-.23-.08-.46-.19t-.41-.27q-.17-.17-.28-.4-.11-.25-.11-.59 0-.31.13-.6.12-.28.36-.49.25-.22.61-.34.36-.13.84-.13.53 0 .96.17.44.18.73.46"/></svg>