<svg xmlns="http://www.w3.org/2000/svg" width="64" height="64" viewBox="0 0 64 64"><rect width="100%" height="100%" fill="#90EE90"/><path fill="#000000" d="M16.29 29.505v.77h-1.53v4.29h-.94v-4.29h-1.53v-.77zm1.29 1.69.05.4q.17-.32.4-.5.23-.19.55-.19.24 0 .4.11l-.06.65q-.02.06-.05.09-.03.02-.09.02-.05 0-.16-.01-.1-.02-.2-.02-.14 0-.25.04-.12.04-.2.12-.09.08-.16.19t-.13.26v2.21h-.86v-3.59h.5q.14 0 .19.05.05.04.07.17m3.74 2.44v-.6q-.37.01-.63.06-.25.05-.41.12-.15.08-.22.17-.06.1-.06.22 0 .23.13.32.14.1.35.1.27 0 .46-.1.2-.09.38-.29m-1.82-1.88-.16-.28q.62-.57 1.49-.57.32 0 .57.11.25.1.42.28.17.19.26.44.09.26.09.56v2.27h-.39q-.13 0-.19-.04-.07-.03-.11-.15l-.08-.25q-.13.12-.26.21t-.27.16q-.14.06-.3.09-.16.04-.35.04-.23 0-.42-.07-.19-.06-.33-.18t-.22-.3q-.08-.19-.08-.43 0-.13.05-.27.04-.13.15-.26.1-.12.26-.23.17-.11.41-.19t.56-.13q.31-.05.72-.06v-.21q0-.36-.15-.53-.15-.18-.44-.18-.21 0-.35.05t-.25.11q-.1.07-.19.11-.08.05-.19.05-.09 0-.15-.04-.06-.05-.1-.11m4.23-.62.06.28q.11-.11.23-.2t.25-.16q.14-.06.29-.1.16-.04.34-.04.29 0 .52.1t.38.28.23.43.08.55v2.29h-.87v-2.29q0-.32-.15-.5-.15-.19-.46-.19-.22 0-.42.11-.19.1-.37.27v2.6h-.86v-3.59h.53q.17 0 .22.16m5.58.23-.19.31q-.04.06-.08.08-.03.02-.09.02-.07 0-.14-.03-.07-.04-.16-.08-.1-.05-.22-.08-.12-.04-.28-.04-.26 0-.41.11-.14.11-.14.28 0 .12.07.2.08.08.2.14.13.06.29.1.15.05.32.11.16.05.32.13.15.07.28.18.12.11.2.26.07.16.07.37 0 .26-.09.48t-.27.38q-.19.16-.45.25-.27.09-.62.09-.19 0-.36-.04-.18-.03-.34-.09-.17-.06-.3-.14-.14-.08-.25-.18l.2-.32q.04-.06.09-.1.05-.03.14-.03.08 0 .15.05.07.04.16.1.1.05.23.1.12.04.32.04.15 0 .26-.04.11-.03.19-.09.07-.06.1-.14t.03-.16q0-.13-.07-.21-.08-.08-.2-.14t-.28-.11q-.16-.04-.33-.1t-.32-.13q-.16-.08-.29-.19-.12-.12-.2-.29-.07-.16-.07-.4 0-.22.08-.42.09-.2.26-.35t.43-.24q.25-.09.58-.09.37 0 .68.13.3.12.5.32m2.59 2.27v-.6q-.37.01-.63.06-.25.05-.41.12-.15.08-.22.17-.07.1-.07.22 0 .23.14.32.13.1.35.1.27 0 .46-.1.2-.09.38-.29m-1.83-1.88-.15-.28q.62-.57 1.49-.57.32 0 .56.11.25.1.42.28.18.19.27.44.08.26.08.56v2.27h-.39q-.12 0-.19-.04-.06-.03-.1-.15l-.08-.25q-.14.12-.26.21-.13.09-.27.16-.14.06-.3.09-.16.04-.36.04-.22 0-.42-.07-.19-.06-.33-.18t-.21-.3q-.08-.19-.08-.43 0-.13.04-.27.05-.13.15-.26.11-.12.27-.23t.4-.19.56-.13.73-.06v-.21q0-.36-.15-.53-.16-.18-.45-.18-.21 0-.35.05-.13.05-.24.11-.1.07-.19.11-.09.05-.19.05-.09 0-.15-.04-.07-.05-.11-.11m6.29-.34-.23.32q-.04.05-.08.08-.03.02-.1.02t-.13-.04q-.07-.04-.15-.09-.09-.05-.21-.09t-.3-.04q-.23 0-.4.08-.17.09-.28.24-.12.15-.17.37-.06.22-.06.5t.06.51q.06.22.18.37.11.16.28.24.16.07.37.07.2 0 .33-.05t.22-.11.15-.11.15-.05q.1 0 .15.08l.25.31q-.14.17-.31.29-.17.11-.35.18t-.37.09q-.19.03-.38.03-.33 0-.63-.12-.29-.13-.51-.36-.22-.24-.35-.59-.13-.34-.13-.78 0-.4.12-.74.11-.33.33-.58t.55-.39q.32-.14.75-.14.4 0 .7.13t.55.37m1.77 3.21q-.47 0-.72-.27-.25-.26-.25-.73v-2h-.37q-.07 0-.12-.05-.05-.04-.05-.14v-.34l.58-.09.18-.98q.02-.07.07-.11t.12-.04h.45v1.13h.96v.62h-.96v1.94q0 .17.08.27.09.09.23.09.08 0 .14-.02.05-.02.09-.04t.07-.04.06-.02q.04 0 .07.02.02.02.05.06l.26.42q-.19.16-.44.24-.24.08-.5.08m1.43-3.65h.87v3.59h-.87zm.99-1.05q0 .11-.05.21-.04.1-.12.17-.07.08-.17.12-.11.05-.22.05t-.21-.05q-.1-.04-.18-.12-.07-.07-.11-.17-.05-.1-.05-.21t.05-.21q.04-.11.11-.18.08-.07.18-.12.1-.04.21-.04t.22.04q.1.05.17.12.08.07.12.18.05.1.05.21m2.35.99q.4 0 .73.13.32.13.56.37.23.24.36.58.12.34.12.77 0 .42-.12.77-.13.34-.36.58-.24.24-.56.37-.33.13-.73.13t-.73-.13-.56-.37-.36-.58q-.13-.35-.13-.77 0-.43.13-.77t.36-.58.56-.37.73-.13m0 3.04q.45 0 .66-.3.22-.3.22-.89 0-.58-.22-.88-.21-.31-.66-.31t-.67.31-.22.88q0 .58.22.88.22.31.67.31m3.18-2.82.06.28q.11-.11.23-.2t.26-.16q.13-.06.29-.1.15-.04.33-.04.3 0 .52.1.23.1.38.28.16.18.23.43.08.25.08.55v2.29h-.86v-2.29q0-.32-.15-.5-.15-.19-.46-.19-.22 0-.42.11-.2.1-.37.27v2.6h-.87v-3.59h.53q.17 0 .22.16m5.59.23-.2.31q-.03.06-.07.08t-.1.02-.13-.03q-.08-.04-.17-.08-.09-.05-.21-.08-.13-.04-.29-.04-.26 0-.4.11-.15.11-.15.28 0 .12.08.2.07.08.2.14.12.06.28.1.16.05.32.11.16.05.32.13.16.07.28.18.13.11.2.26.08.16.08.37 0 .26-.1.48-.09.22-.27.38t-.45.25-.62.09q-.18 0-.36-.04-.18-.03-.34-.09t-.3-.14-.24-.18l.2-.32q.03-.06.09-.1.05-.03.13-.03t.15.05q.07.04.17.1.09.05.22.1.13.04.32.04.16 0 .27-.04.11-.03.18-.09t.11-.14q.03-.08.03-.16 0-.13-.08-.21-.07-.08-.2-.14-.12-.06-.28-.11-.16-.04-.32-.1-.17-.06-.33-.13-.16-.08-.28-.19-.13-.12-.2-.29-.08-.16-.08-.4 0-.22.09-.42t.26-.35.42-.24.59-.09q.37 0 .67.13.31.12.51.32"/></svg>